<?xml version="1.0" encoding="UTF-8" standalone="no"?>
<svg
   xmlns:dc="http://purl.org/dc/elements/1.1/"
   xmlns:cc="http://creativecommons.org/ns#"
   xmlns:rdf="http://www.w3.org/1999/02/22-rdf-syntax-ns#"
   xmlns:svg="http://www.w3.org/2000/svg"
   xmlns="http://www.w3.org/2000/svg"
   xmlns:sodipodi="http://sodipodi.sourceforge.net/DTD/sodipodi-0.dtd"
   xmlns:inkscape="http://www.inkscape.org/namespaces/inkscape"
   width="24"
   height="24"
   viewBox="0 0 24 24"
   id="svg2"
   version="1.1"
   inkscape:version="0.91 r13725"
   sodipodi:docname="block.svg">
  <sodipodi:namedview
     pagecolor="#ffffff"
     bordercolor="#666666"
     borderopacity="1"
     objecttolerance="10"
     gridtolerance="10"
     guidetolerance="10"
     inkscape:pageopacity="0"
     inkscape:pageshadow="2"
     inkscape:window-width="958"
     inkscape:window-height="1008"
     id="namedview10"
     showgrid="false"
     inkscape:zoom="19.666667"
     inkscape:cx="11.712776"
     inkscape:cy="14.22748"
     inkscape:window-x="1913"
     inkscape:window-y="0"
     inkscape:window-maximized="0"
     inkscape:current-layer="svg2" />
  <metadata
     id="metadata12">
    <rdf:RDF>
      <cc:Work
         rdf:about="">
        <dc:format>image/svg+xml</dc:format>
        <dc:type
           rdf:resource="http://purl.org/dc/dcmitype/StillImage" />
        <dc:title />
      </cc:Work>
    </rdf:RDF>
  </metadata>
  <defs
     id="defs10" />
  <circle
     style="opacity:1;fill:#808080;fill-opacity:1;stroke:none;stroke-width:5;stroke-linecap:butt;stroke-linejoin:miter;stroke-miterlimit:4;stroke-dasharray:none;stroke-opacity:1"
     id="circle4172"
     cx="12"
     cy="12"
     r="8.6618528" />
  <path
     fill="none"
     d="M0 0h24v24H0V0z"
     id="path4" />
  <path
     id="path6-3"
     d="M 12 2 C 6.4800001 2 2 6.48 2 12 C 2 17.52 6.4800001 22 12 22 C 17.52 22 22 17.52 22 12 C 22 6.48 17.52 2 12 2 z M 12 4 C 16.41 4 20 7.5900001 20 12 C 20 13.802605 19.39327 15.463316 18.382812 16.802734 L 7.2050781 5.6113281 C 8.5431615 4.6044192 10.200889 4 12 4 z M 5.6171875 7.1972656 L 16.794922 18.388672 C 15.456839 19.395581 13.799111 20 12 20 C 7.5900001 20 4 16.41 4 12 C 4 10.197395 4.6067302 8.5366839 5.6171875 7.1972656 z "
     style="fill:#ffffff;fill-opacity:1" />
  <g
     id="g4200">
    <path
       style="fill:none"
       d="M 0,0 24,0 24,24 0,24 0,0 Z"
       id="path4190" />
  </g>
</svg>
