<?xml version="1.0" encoding="UTF-8" standalone="no"?>
<svg
   xmlns:osb="http://www.openswatchbook.org/uri/2009/osb"
   xmlns:dc="http://purl.org/dc/elements/1.1/"
   xmlns:cc="http://creativecommons.org/ns#"
   xmlns:rdf="http://www.w3.org/1999/02/22-rdf-syntax-ns#"
   xmlns:svg="http://www.w3.org/2000/svg"
   xmlns="http://www.w3.org/2000/svg"
   xmlns:xlink="http://www.w3.org/1999/xlink"
   xmlns:sodipodi="http://sodipodi.sourceforge.net/DTD/sodipodi-0.dtd"
   xmlns:inkscape="http://www.inkscape.org/namespaces/inkscape"
   width="24"
   height="24"
   viewBox="0 0 24 24"
   id="svg2"
   version="1.1"
   inkscape:version="0.91 r13725"
   sodipodi:docname="question.svg">
  <sodipodi:namedview
     pagecolor="#ffffff"
     bordercolor="#666666"
     borderopacity="1"
     objecttolerance="10"
     gridtolerance="10"
     guidetolerance="10"
     inkscape:pageopacity="0"
     inkscape:pageshadow="2"
     inkscape:window-width="1920"
     inkscape:window-height="1017"
     id="namedview11"
     showgrid="false"
     inkscape:zoom="19.666667"
     inkscape:cx="10.301735"
     inkscape:cy="11.42378"
     inkscape:window-x="-8"
     inkscape:window-y="-8"
     inkscape:window-maximized="1"
     inkscape:current-layer="svg2" />
  <metadata
     id="metadata12">
    <rdf:RDF>
      <cc:Work
         rdf:about="">
        <dc:format>image/svg+xml</dc:format>
        <dc:type
           rdf:resource="http://purl.org/dc/dcmitype/StillImage" />
        <dc:title />
      </cc:Work>
    </rdf:RDF>
  </metadata>
  <defs
     id="defs10">
    <linearGradient
       id="linearGradient4139"
       osb:paint="solid">
      <stop
         style="stop-color:#ffffff;stop-opacity:1;"
         offset="0"
         id="stop4141" />
    </linearGradient>
    <linearGradient
       inkscape:collect="always"
       xlink:href="#linearGradient4139"
       id="linearGradient4143"
       x1="8.1393081"
       y1="11.998036"
       x2="15.996146"
       y2="11.998036"
       gradientUnits="userSpaceOnUse" />
  </defs>
  <path
     fill="none"
     d="M0 0h24v24H0V0z"
     id="path4" />
  <path
     style="fill:#ffffff;fill-opacity:1"
     id="path6-3"
     d="M 12,2 C 6.4800001,2 1.9999998,6.48 1.9999998,12 1.9999998,17.52 6.4800001,22 12,22 17.52,22 22,17.52 22,12 22,6.48 17.52,2 12,2 Z m 0,18 C 7.5900001,20 3.9999998,16.41 3.9999998,12 3.9999998,7.5899999 7.5900001,4.0000001 12,4.0000001 c 4.41,0 8,3.59 8,7.9999999 0,4.41 -3.59,8 -8,8 z" />
  <circle
     r="8.7966099"
     cy="12"
     cx="12"
     id="path4142"
     style="fill:#808080;fill-opacity:1;stroke:none;stroke-width:5;stroke-linecap:butt;stroke-linejoin:miter;stroke-miterlimit:4;stroke-dasharray:none;stroke-opacity:1" />
  <g
     id="g4200">
    <path
       style="fill:none"
       d="M 0,0 24,0 24,24 0,24 0,0 Z"
       id="path4190" />
    <path
       d="m 11,16 2,0 0,2 -2,0 z M 12.61,6.04 C 10.55,5.74 8.73,7.01 8.18,8.83 8,9.41 8.44,10 9.05,10 l 0.2,0 c 0.41,0 0.74,-0.29 0.88,-0.67 0.32,-0.89 1.27,-1.5 2.3,-1.28 0.95,0.2 1.65,1.13 1.57,2.1 -0.1,1.34 -1.62,1.63 -2.45,2.88 0,0.01 -0.01,0.01 -0.01,0.02 -0.01,0.02 -0.02,0.03 -0.03,0.05 -0.09,0.15 -0.18,0.32 -0.25,0.5 -0.01,0.03 -0.03,0.05 -0.04,0.08 -0.01,0.02 -0.01,0.04 -0.02,0.07 C 11.08,14.09 11,14.5 11,15 l 2,0 c 0,-0.42 0.11,-0.77 0.28,-1.07 0.02,-0.03 0.03,-0.06 0.05,-0.09 0.08,-0.14 0.18,-0.27 0.28,-0.39 0.01,-0.01 0.02,-0.03 0.03,-0.04 0.1,-0.12 0.21,-0.23 0.33,-0.34 0.96,-0.91 2.26,-1.65 1.99,-3.56 C 15.72,7.77 14.35,6.3 12.61,6.04 Z"
       id="path4192"
       style="fill-opacity:1;fill:url(#linearGradient4143)" />
  </g>
</svg>
