<?xml version="1.0" encoding="UTF-8" standalone="no"?>
<svg
   xmlns:osb="http://www.openswatchbook.org/uri/2009/osb"
   xmlns:dc="http://purl.org/dc/elements/1.1/"
   xmlns:cc="http://creativecommons.org/ns#"
   xmlns:rdf="http://www.w3.org/1999/02/22-rdf-syntax-ns#"
   xmlns:svg="http://www.w3.org/2000/svg"
   xmlns="http://www.w3.org/2000/svg"
   xmlns:xlink="http://www.w3.org/1999/xlink"
   xmlns:sodipodi="http://sodipodi.sourceforge.net/DTD/sodipodi-0.dtd"
   xmlns:inkscape="http://www.inkscape.org/namespaces/inkscape"
   width="24"
   height="24"
   viewBox="0 0 24 24"
   id="svg2"
   version="1.1"
   inkscape:version="0.91 r13725"
   sodipodi:docname="in.svg">
  <sodipodi:namedview
     pagecolor="#ffffff"
     bordercolor="#666666"
     borderopacity="1"
     objecttolerance="10"
     gridtolerance="10"
     guidetolerance="10"
     inkscape:pageopacity="0"
     inkscape:pageshadow="2"
     inkscape:window-width="1920"
     inkscape:window-height="1017"
     id="namedview11"
     showgrid="false"
     inkscape:zoom="19.666667"
     inkscape:cx="2.268864"
     inkscape:cy="14.03478"
     inkscape:window-x="-8"
     inkscape:window-y="-8"
     inkscape:window-maximized="1"
     inkscape:current-layer="svg2" />
  <metadata
     id="metadata12">
    <rdf:RDF>
      <cc:Work
         rdf:about="">
        <dc:format>image/svg+xml</dc:format>
        <dc:type
           rdf:resource="http://purl.org/dc/dcmitype/StillImage" />
        <dc:title />
      </cc:Work>
    </rdf:RDF>
  </metadata>
  <defs
     id="defs10">
    <linearGradient
       id="linearGradient5615"
       osb:paint="solid">
      <stop
         style="stop-color:#ffffff;stop-opacity:1;"
         offset="0"
         id="stop5617" />
    </linearGradient>
    <linearGradient
       inkscape:collect="always"
       xlink:href="#linearGradient5615"
       id="linearGradient5619"
       x1="3"
       y1="12"
       x2="21"
       y2="12"
       gradientUnits="userSpaceOnUse" />
  </defs>
  <path
     fill="none"
     d="M0 0h24v24H0V0z"
     id="path4" />
  <path
     style="fill:#ffffff;fill-opacity:1"
     id="path6-3"
     d="M 12,2 C 6.4800001,2 1.9999998,6.48 1.9999998,12 1.9999998,17.52 6.4800001,22 12,22 17.52,22 22,17.52 22,12 22,6.48 17.52,2 12,2 Z m 0,18 C 7.5900001,20 3.9999998,16.41 3.9999998,12 3.9999998,7.5899999 7.5900001,4.0000001 12,4.0000001 c 4.41,0 8,3.59 8,7.9999999 0,4.41 -3.59,8 -8,8 z" />
  <circle
     r="8.7966099"
     cy="12"
     cx="12"
     id="path4142"
     style="fill:#808080;fill-opacity:1;stroke:none;stroke-width:5;stroke-linecap:butt;stroke-linejoin:miter;stroke-miterlimit:4;stroke-dasharray:none;stroke-opacity:1" />
  <g
     transform="matrix(0.58951852,0,0,0.58951852,4.9257778,4.9257778)"
     id="g4184">
    <path
       style="fill:none"
       d="M 0,0 24,0 24,24 0,24 0,0 Z"
       id="path4174" />
    <path
       d="m 10.79,16.29 c 0.39,0.39 1.02,0.39 1.41,0 l 3.59,-3.59 c 0.39,-0.39 0.39,-1.02 0,-1.41 L 12.2,7.7 c -0.39,-0.39 -1.02,-0.39 -1.41,0 -0.39,0.39 -0.39,1.02 0,1.41 L 12.67,11 4,11 c -0.55,0 -1,0.45 -1,1 0,0.55 0.45,1 1,1 l 8.67,0 -1.88,1.88 c -0.39,0.39 -0.38,1.03 0,1.41 z M 19,3 5,3 C 3.89,3 3,3.9 3,5 L 3,8 C 3,8.55 3.45,9 4,9 4.55,9 5,8.55 5,8 L 5,6 C 5,5.45 5.45,5 6,5 l 12,0 c 0.55,0 1,0.45 1,1 l 0,12 c 0,0.55 -0.45,1 -1,1 L 6,19 C 5.45,19 5,18.55 5,18 L 5,16 C 5,15.45 4.55,15 4,15 3.45,15 3,15.45 3,16 l 0,3 c 0,1.1 0.9,2 2,2 l 14,0 c 1.1,0 2,-0.9 2,-2 L 21,5 C 21,3.9 20.1,3 19,3 Z"
       id="path4176"
       style="fill-opacity:1;fill:url(#linearGradient5619)" />
  </g>
</svg>
