<?xml version="1.0" encoding="UTF-8" standalone="no"?>
<svg
   xmlns:osb="http://www.openswatchbook.org/uri/2009/osb"
   xmlns:dc="http://purl.org/dc/elements/1.1/"
   xmlns:cc="http://creativecommons.org/ns#"
   xmlns:rdf="http://www.w3.org/1999/02/22-rdf-syntax-ns#"
   xmlns:svg="http://www.w3.org/2000/svg"
   xmlns="http://www.w3.org/2000/svg"
   xmlns:xlink="http://www.w3.org/1999/xlink"
   xmlns:sodipodi="http://sodipodi.sourceforge.net/DTD/sodipodi-0.dtd"
   xmlns:inkscape="http://www.inkscape.org/namespaces/inkscape"
   width="24"
   height="24"
   viewBox="0 0 24 24"
   id="svg2"
   version="1.1"
   inkscape:version="0.91 r13725"
   sodipodi:docname="shoppingcart.svg">
  <sodipodi:namedview
     pagecolor="#ffffff"
     bordercolor="#666666"
     borderopacity="1"
     objecttolerance="10"
     gridtolerance="10"
     guidetolerance="10"
     inkscape:pageopacity="0"
     inkscape:pageshadow="2"
     inkscape:window-width="1920"
     inkscape:window-height="1017"
     id="namedview11"
     showgrid="false"
     inkscape:zoom="9.8333333"
     inkscape:cx="10.576271"
     inkscape:cy="16.983051"
     inkscape:window-x="-8"
     inkscape:window-y="-8"
     inkscape:window-maximized="1"
     inkscape:current-layer="svg2" />
  <metadata
     id="metadata12">
    <rdf:RDF>
      <cc:Work
         rdf:about="">
        <dc:format>image/svg+xml</dc:format>
        <dc:type
           rdf:resource="http://purl.org/dc/dcmitype/StillImage" />
        <dc:title />
      </cc:Work>
    </rdf:RDF>
  </metadata>
  <defs
     id="defs10">
    <linearGradient
       id="linearGradient4139"
       osb:paint="solid">
      <stop
         style="stop-color:#ffffff;stop-opacity:1;"
         offset="0"
         id="stop4141" />
    </linearGradient>
    <linearGradient
       inkscape:collect="always"
       xlink:href="#linearGradient4139"
       id="linearGradient4143"
       x1="1"
       y1="12"
       x2="21.007428"
       y2="12"
       gradientUnits="userSpaceOnUse" />
  </defs>
  <path
     fill="none"
     d="M0 0h24v24H0V0z"
     id="path4" />
  <path
     style="fill:#ffffff;fill-opacity:1"
     id="path6-3"
     d="M 12,2 C 6.4800001,2 1.9999998,6.48 1.9999998,12 1.9999998,17.52 6.4800001,22 12,22 17.52,22 22,17.52 22,12 22,6.48 17.52,2 12,2 Z m 0,18 C 7.5900001,20 3.9999998,16.41 3.9999998,12 3.9999998,7.5899999 7.5900001,4.0000001 12,4.0000001 c 4.41,0 8,3.59 8,7.9999999 0,4.41 -3.59,8 -8,8 z" />
  <circle
     r="8.7966099"
     cy="12"
     cx="12"
     id="path4142"
     style="fill:#808080;fill-opacity:1;stroke:none;stroke-width:5;stroke-linecap:butt;stroke-linejoin:miter;stroke-miterlimit:4;stroke-dasharray:none;stroke-opacity:1" />
  <g
     transform="matrix(0.5,0,0,0.5,6,6)"
     id="g4152">
    <path
       style="fill:none"
       d="M 0,0 24,0 24,24 0,24 0,0 Z"
       id="path4142-9" />
    <path
       d="m 7,18 c -1.1,0 -1.99,0.9 -1.99,2 0,1.1 0.89,2 1.99,2 1.1,0 2,-0.9 2,-2 C 9,18.9 8.1,18 7,18 Z M 1,3 c 0,0.55 0.45,1 1,1 l 1,0 3.6,7.59 -1.35,2.44 C 4.52,15.37 5.48,17 7,17 l 11,0 c 0.55,0 1,-0.45 1,-1 0,-0.55 -0.45,-1 -1,-1 l -11,0 1.1,-2 7.45,0 c 0.75,0 1.41,-0.41 1.75,-1.03 L 20.88,5.48 C 21.25,4.82 20.77,4 20.01,4 L 5.21,4 4.54,2.57 C 4.38,2.22 4.02,2 3.64,2 L 2,2 C 1.45,2 1,2.45 1,3 Z m 16,15 c -1.1,0 -1.99,0.9 -1.99,2 0,1.1 0.89,2 1.99,2 1.1,0 2,-0.9 2,-2 0,-1.1 -0.9,-2 -2,-2 z"
       id="path4144"
       style="fill-opacity:1;fill:url(#linearGradient4143)" />
  </g>
</svg>
