<?xml version="1.0" encoding="UTF-8" standalone="no"?>
<svg
   xmlns:osb="http://www.openswatchbook.org/uri/2009/osb"
   xmlns:dc="http://purl.org/dc/elements/1.1/"
   xmlns:cc="http://creativecommons.org/ns#"
   xmlns:rdf="http://www.w3.org/1999/02/22-rdf-syntax-ns#"
   xmlns:svg="http://www.w3.org/2000/svg"
   xmlns="http://www.w3.org/2000/svg"
   xmlns:xlink="http://www.w3.org/1999/xlink"
   xmlns:sodipodi="http://sodipodi.sourceforge.net/DTD/sodipodi-0.dtd"
   xmlns:inkscape="http://www.inkscape.org/namespaces/inkscape"
   version="1.1"
   id="svg2"
   viewBox="0 0 24 24"
   height="24"
   width="24"
   inkscape:version="0.91 r13725"
   sodipodi:docname="shop.svg">
  <sodipodi:namedview
     pagecolor="#ffffff"
     bordercolor="#666666"
     borderopacity="1"
     objecttolerance="10"
     gridtolerance="10"
     guidetolerance="10"
     inkscape:pageopacity="0"
     inkscape:pageshadow="2"
     inkscape:window-width="1920"
     inkscape:window-height="1017"
     id="namedview11"
     showgrid="false"
     inkscape:zoom="9.8333333"
     inkscape:cx="-3.1525424"
     inkscape:cy="17.491525"
     inkscape:window-x="-8"
     inkscape:window-y="-8"
     inkscape:window-maximized="1"
     inkscape:current-layer="svg2" />
  <metadata
     id="metadata12">
    <rdf:RDF>
      <cc:Work
         rdf:about="">
        <dc:format>image/svg+xml</dc:format>
        <dc:type
           rdf:resource="http://purl.org/dc/dcmitype/StillImage" />
        <dc:title />
      </cc:Work>
    </rdf:RDF>
  </metadata>
  <defs
     id="defs10">
    <linearGradient
       id="linearGradient4139"
       osb:paint="solid">
      <stop
         style="stop-color:#ffffff;stop-opacity:1;"
         offset="0"
         id="stop4141" />
    </linearGradient>
    <linearGradient
       inkscape:collect="always"
       xlink:href="#linearGradient4139"
       id="linearGradient4143"
       x1="6.5"
       y1="12"
       x2="16.5"
       y2="12"
       gradientUnits="userSpaceOnUse" />
  </defs>
  <path
     id="path4"
     d="M0 0h24v24H0V0z"
     fill="none" />
  <path
     d="M 12,1.9999999 C 6.4799999,1.9999999 1.9999996,6.4799999 1.9999996,12 1.9999996,17.52 6.4799999,22 12,22 17.52,22 22,17.52 22,12 22,6.4799999 17.52,1.9999999 12,1.9999999 Z M 12,20 C 7.5899999,20 3.9999996,16.41 3.9999996,12 3.9999996,7.5899999 7.5899999,4 12,4 c 4.41,0 8,3.59 8,8 0,4.41 -3.59,8 -8,8 z"
     id="path6-3"
     style="fill:#ffffff;fill-opacity:1" />
  <circle
     r="8.7966099"
     style="fill:#808080;fill-opacity:1;stroke:none;stroke-width:5;stroke-linecap:butt;stroke-linejoin:miter;stroke-miterlimit:4;stroke-dasharray:none;stroke-opacity:1"
     id="path4142"
     cx="12"
     cy="12" />
  <g
     transform="matrix(0.77118644,0,0,0.77118644,3.1517945,2.7457627)"
     id="g4164">
    <path
       style="fill:none"
       d="M 0,0 24,0 24,24 0,24 0,0 Z"
       id="path4154" />
    <path
       d="M 11.8,10.9 C 9.53,10.31 8.8,9.7 8.8,8.75 8.8,7.66 9.81,6.9 11.5,6.9 c 1.42,0 2.13,0.54 2.39,1.4 0.12,0.4 0.45,0.7 0.87,0.7 l 0.3,0 C 15.72,9 16.19,8.35 15.96,7.73 15.54,6.55 14.56,5.57 13,5.19 L 13,4.5 C 13,3.67 12.33,3 11.5,3 10.67,3 10,3.67 10,4.5 l 0,0.66 C 8.06,5.58 6.5,6.84 6.5,8.77 c 0,2.31 1.91,3.46 4.7,4.13 2.5,0.6 3,1.48 3,2.41 0,0.69 -0.49,1.79 -2.7,1.79 C 9.85,17.1 9,16.51 8.67,15.67 8.52,15.28 8.18,15 7.77,15 l -0.28,0 c -0.67,0 -1.14,0.68 -0.89,1.3 0.57,1.39 1.9,2.21 3.4,2.53 l 0,0.67 c 0,0.83 0.67,1.5 1.5,1.5 0.83,0 1.5,-0.67 1.5,-1.5 l 0,-0.65 c 1.95,-0.37 3.5,-1.5 3.5,-3.55 0,-2.84 -2.43,-3.81 -4.7,-4.4 z"
       id="path4156"
       style="fill-opacity:1;fill:url(#linearGradient4143)" />
  </g>
</svg>
